{"title":"Vic.+.Flo.Ont.Vu.Un.Ours.2013.DVDRip.x264","uid":9826784,"size":1758347522,"categoryP":"video","categoryS":"movies","magnet":"?xt=urn:btih:53d6e17adf3192897ff1bbe810c7480ddc16172a&amp;dn=Vic.%2B.Flo.Ont.Vu.Un.Ours.2013.DVDRip.x264&amp;tr=udp%3A%2F%2Ftracker.openbittorrent.com%3A80&amp;tr=udp%3A%2F%2Fopen.demonii.com%3A1337&amp;tr=udp%3A%2F%2Ftracker.coppersurfer.tk%3A6969&amp;tr=udp%3A%2F%2Fexodus.desync.com%3A6969","seeders":4,"leechers":0,"uploader":"tonioferah","files":1,"time":1395790745,"description":"Winner 2013 Silver Bear (Alfred Bauer Prize) Berlin International Film Festival. Vic + Flow Saw a Bear is a darkly mysterious tale of lesbian two ex-cons, Victoria and Florence, trying to make a new life in the backwoods of Quebec. Seeking peace and quite, the couple the slowly begin to feel under siege as Vic's probation office keeps unexpectedly popping up and a strange woman in the neighborhood soon turns out to be an increasingly menacing shadow from Flo's past. With it's collection of complex and eccentric characters, unexpected plot twists and unsettling humor, director Denis Cote (Curling, Bestiaire) has created an original film that is as once traumatizing, uplifting, and utterly breathless.\n\n\n____________________________________________________________________\n\n\n\nGeneral\nComplete name                    : Vic.+.Flo.Ont.Vu.Un.Ours.2013.DVDRip.x264.mkv\nFormat                           : Matroska\nFile size                        : 1.64 GiB\nDuration                         : 1h 35mn\nOverall bit rate                 : 2 460 Kbps\nWriting application              : HandBrake 0.9.6\nWriting library                  : libmkv 0.6.5\n\nVideo\nID                               : 1\nFormat                           : AVC\nFormat/Info                      : Advanced Video Codec\nFormat profile                   : &lt;a class=&quot;__cf_email__&quot; href=&quot;/cdn-cgi/l/email-protection&quot; data-cfemail=&quot;bdf5d4dad5fdf18e938c&quot;&gt;[email&amp;#160;protected]&lt;/a&gt;&lt;script cf-hash='f9e31' type=&quot;text/javascript&quot;&gt;\n/* &lt;![CDATA[ */!function(){try{var t=&quot;currentScript&quot;in document?document.currentScript:function(){for(var t=document.getElementsByTagName(&quot;script&quot;),e=t.length;e--;)if(t[e].getAttribute(&quot;cf-hash&quot;))return t[e]}();if(t&amp;&amp;t.previousSibling){var e,r,n,i,c=t.previousSibling,a=c.getAttribute(&quot;data-cfemail&quot;);if(a){for(e=&quot;&quot;,r=parseInt(a.substr(0,2),16),n=2;a.length-n;n+=2)i=parseInt(a.substr(n,2),16)^r,e+=String.fromCharCode(i);e=document.createTextNode(e),c.parentNode.replaceChild(e,c)}}}catch(u){}}();/* ]]&gt; */&lt;/script&gt;\nFormat settings, CABAC           : Yes\nFormat settings, ReFrames        : 11 frames\nCodec ID                         : V_MPEG4/ISO/AVC\nDuration                         : 1h 35mn\nBit rate                         : 2 057 Kbps\nWidth                            : 720 pixels\nHeight                           : 466 pixels\nDisplay aspect ratio             : 16:9\nOriginal display aspect ratio    : 16:9\nFrame rate                       : 23.976 fps\nColor space                      : YUV\nChroma subsampling               : 4:2:0\nBit depth                        : 8 bits\nScan type                        : Progressive\nBits/(Pixel*Frame)               : 0.256\nStream size                      : 1.31 GiB (80%)\nWriting library                  : x264 core 120\nEncoding settings                : cabac=1 / ref=11 / deblock=1:-2:-2 / analyse=0x3:0x133 / me=umh / subme=11 / psy=1 / psy_rd=1.00:0.00 / mixed_ref=1 / me_range=32 / chroma_me=1 / trellis=2 / 8x8dct=1 / cqm=0 / deadzone=21,11 / fast_pskip=1 / chroma_qp_offset=-2 / threads=3 / sliced_threads=0 / nr=0 / decimate=1 / interlaced=0 / bluray_compat=0 / constrained_intra=0 / bframes=9 / b_pyramid=2 / b_adapt=2 / b_bias=0 / direct=3 / weightb=1 / open_gop=0 / weightp=1 / keyint=240 / keyint_min=24 / scenecut=40 / intra_refresh=0 / rc_lookahead=60 / rc=abr / mbtree=1 / bitrate=2057 / ratetol=1.0 / qcomp=0.60 / qpmin=3 / qpmax=69 / qpstep=4 / ip_ratio=1.40 / aq=2:1.20\nLanguage                         : English\nColor primaries                  : BT.601-6 525, BT.1358 525, BT.1700 NTSC, SMPTE 170M\nTransfer characteristics         : BT.709-5, BT.1361\nMatrix coefficients              : BT.601-6 525, BT.1358 525, BT.1700 NTSC, SMPTE 170M\n\nAudio\nID                               : 2\nFormat                           : AC-3\nFormat/Info                      : Audio Coding 3\nMode extension                   : CM (complete main)\nCodec ID                         : A_AC3\nDuration                         : 1h 35mn\nBit rate mode                    : Constant\nBit rate                         : 448 Kbps\nChannel(s)                       : 6 channels\nChannel positions                : Front: L C R, Side: L R, LFE\nSampling rate                    : 48.0 KHz\nBit depth                        : 16 bits\nCompression mode                 : Lossy\nStream size                      : 305 MiB (18%)\nLanguage                         : French\n\nText #1\nID                               : 3\nFormat                           : VobSub\nCodec ID                         : S_VOBSUB\nCodec ID/Info                    : The same subtitle format used on DVDs\nLanguage                         : French\n\nText #2\nID                               : 4\nFormat                           : VobSub\nCodec ID                         : S_VOBSUB\nCodec ID/Info                    : The same subtitle format used on DVDs\nLanguage                         : English","torrent":{"xt":"urn:btih:53d6e17adf3192897ff1bbe810c7480ddc16172a","amp;dn":"Vic.%2B.Flo.Ont.Vu.Un.Ours.2013.DVDRip.x264","amp;tr":["udp%3A%2F%2Ftracker.openbittorrent.com%3A80","udp%3A%2F%2Fopen.demonii.com%3A1337","udp%3A%2F%2Ftracker.coppersurfer.tk%3A6969","udp%3A%2F%2Fexodus.desync.com%3A6969"],"infoHash":"53d6e17adf3192897ff1bbe810c7480ddc16172a","infoHashBuffer":{"type":"Buffer","data":[83,214,225,122,223,49,146,137,127,241,187,232,16,199,72,13,220,22,23,42]},"announce":[],"urlList":[]}}